<?xml version="1.0" encoding="utf-8"?>
<!-- Generator: Adobe Illustrator 25.0.0, SVG Export Plug-In . SVG Version: 6.00 Build 0)  -->
<svg version="1.1" id="Capa_1" xmlns="http://www.w3.org/2000/svg" xmlns:xlink="http://www.w3.org/1999/xlink" x="0px" y="0px"
	 viewBox="0 0 1920 1080" style="enable-background:new 0 0 1920 1080;" xml:space="preserve">
<style type="text/css">
	.st0{fill:none;stroke:#D2D6D1;stroke-width:6;}
	.st1{fill:none;stroke:#D2D6D1;stroke-width:3;}
</style>
<path id="Path_10" class="st0" d="M962.2,178.1c0,0-35.5,97.6-517.6,237S16.9,980.6,8.5,1015"/>
<path id="Path_11" class="st1" d="M968.8,183.7c0,0-35.5,97.6-517.6,237S23.5,986.2,15.1,1020.6"/>
<path id="Path_12" class="st0" d="M969.2,185.8V1356"/>
<path id="Path_13" class="st1" d="M976.8,185.8l-0.3,1170.7"/>
<path id="Path_8" class="st1" d="M953.1,39.2c0,0-35.6,116.8,71.6,203.2s508.1,223.6,672.4,441.2c56.7,75.1,169.9,261.3,221.4,294.4
	"/>
<path id="Path_8_1_" class="st0" d="M961.1,33.2c0,0-35.6,116.8,71.6,203.2s508.1,223.6,672.4,441.2
	c56.7,75.1,169.9,261.3,221.4,294.4"/>
</svg>
